/* XPM */
static char *_599860326778[] = {
/* columns rows colors chars-per-pixel */
"64 64 41 1 ",
"  c #020204",
". c #060709",
"X c #07080A",
"o c #0B0B0D",
"O c #0E0F11",
"+ c #0F1012",
"@ c #131315",
"# c #161618",
"$ c #17181A",
"% c #1B1B1D",
"& c #1F1F21",
"* c #1F2022",
"= c #232325",
"- c #262628",
"; c #27282A",
": c #2A2A2C",
"> c #2E2F31",
", c #2F3032",
"< c #323234",
"1 c #363638",
"2 c #37383A",
"3 c #3A3A3C",
"4 c #3E3E40",
"5 c #3F4042",
"6 c #424244",
"7 c #474749",
"8 c #47484A",
"9 c #4A4B4C",
"0 c #4E4E50",
"q c #4F5052",
"w c #535355",
"e c #565658",
"r c #57585A",
"t c #5A5B5D",
"y c #5E5F61",
"u c #5F6062",
"i c #626365",
"p c #666769",
"a c #6A6B6D",
"s c #727274",
"d c #797A7C",
/* pixels */
"3>:&16<<::<@36::<>><111>1>=06-3<13%tw>346<>11441&11:-:->#40-=>31",
"==%o:>%:=%%O31%=---:>:---&.14&><=-@74->-:-:<>:>-.:<%%-&%.33#=%#%",
":&%.-1==&-=o3:o%=&=>>:--#:O13=<1:%@w6=:=-:1<:--=O><%#%%&O74@&-&-",
">-=.%&@&@@O.=:&=%%=::==->=o%#o@@&. 34:>%:::===-=.@Oo...  -3-=%&-",
"<@oo&%O:>&1>#@><&%=:::::>o.-><><<1>-O#<1:>:-:>-# &>--<<::=%->-==",
"< %3634049094#@:==-:>>::.@4w6w797tt6%@%3:>:--&Oo4776669ww0:#%:=:",
"#@09=@=&%:@#96%O#&&%&=%@o60<@##@&&:7w<o@@Oo@@o#19>#%%@@&#49>o O=",
"%9t#O=%=-&%#%77.@&&%&&@o4w&O%&==-=%-6>@<3<14<#:t%#@%%%%-:=3w-@%:",
"<0&&=&-&==--=>=&w961361&0=%&&&&==-=--@&w74136&11&==&&&==--:=%046",
"-7&&==-&==-:-:%%7>=->-%&7&%==&=:->:>-@@4=:-:>@><&==&==-:=->-%7>:",
"=4%&===%=-=:-:#%7=&->-#=9=&-===:@----%%4->::-o:>&===&-::-:<-%6-=",
"=3%&===%&-=:::@%3&----@&0=&----:@=--=@&6::==-%36%&=&&->:-->=#4>>",
"-<&&&=-==-=:>:#=3&-==&O=0=#=->:---=:-@%3:=&-:%>4#&&%&=::-=:&@6<3",
":1=&%&&&=-=:::#%7&===%O>0-%==-=&:-&::@#<===:=O:6%%%%&=-->:<-%6<1",
"-:==%=&&===:-:#@1#&&##o-6=&-&&&&:---=O@:@OoOOo&1%%%&&&=:>:<-@3:<",
"#&%==-=:----=:@o&%-%#%O@-@&-==->=>>&O.#<3>-16>%.&#%=&%&:-&=@ -%=",
"0%.-<-::<:=:&..7wwwwwwww#.@<:-:=:>:.o3wee7360y9Oo#=&&%==:# =etwt",
"e6&@&&@O%@## %39--:><3467<@OooO@@O %9e<#&Oooo#37-oOO@oO%O.-ye>->",
"=39%.%=::=-#.37-=&=&====66%%><>:--@19:%%=%%=%O%:1o%::&%#@&77%@=:",
"==1%-96<664-:0<O::---==-=<%1773>3>&4>#--@&&==&#%&@794331@30#O=-:",
":%%.39%%%-=@-6&=>:::-:::::@<<=-&:%@1>=-%-:-%&==-#O61&=-&O37@-:%:",
">-:O><@=::-@=6&->>::----1-@1-%-==-@<>%%--=--:=#&%@3<-<-&@17%==%>",
">%%.>1==::-@-9==:---:-::>&o1>&==--O31=-<:->:==%-##31<>-:@19&=&&-",
"-:&.3>%-=::@:9#=---=---:>=.>>=&-:=@7<&>:=-:&&=%&@#>:>-=1@16&-&&<",
">&:O:1#:::>O>9%%&====-:->=@>>=->:&&>:>>>:::--:@-%&6:&14:@37%=--:",
"1::@=:#%-@%o-7:#==&=-::&-:@->>>-:-.-4--<>-=::&@-#@>>-%&> >9--=-:",
"<1& @%##@o@Oo#%:=&%&-=:-4% %&@%%o%O%:<:<::=>:&%@.%>>-&=><@:>=#->",
"9@O1077weytw6#o-=-=-:-<1@@=90679147:O:41<<>---#o1ypyyy01ww:@1-@4",
"3@3y1:>>13>104&o@&&%&&-& 6e6677<<<<7>%>:::>&&&@&tw11333>=tw=-<:6",
"@4y3#-->--%%:73@O%%@#&@ 6t4%:1<-=-&4w&o@%@%@%O%0<<:11><1<:wy#@-%",
"1t1=<3:1:::-&:<&733146<:w<&=41<>-:--74<w0964<@<e&<<3><363=<w<<16",
"39:13><<1>-<1-%=6&&-:-&16=->=&<:=<:::%6e3731<%44=:-><1<3131:#wy4",
"1w:31>113&<><1%=<&>=&-#37&->>->-=:<:>%16->>--@46:-->>><4>111&44,",
"<e>14111=<<-1<%-4-:=><%>4%-:::>:-=-:<%<6>>::-%66-=->>>><<>>,&544",
"1w14<13>-1<:1>#-1-<:-:#16&:>:-:====-:@>71<->>%43-->>>>>1<,,;&8:,",
"3w<><1<=:>1><1-%1==%--#-6=::--:-&===:#<w=-=::#11&=>>>><<414=&5*4",
"-6>:>:->-:1-<7=o3>>=-=#:7:>>-=:==&&->&>6-<>1-%46&-><>:::;,4,*4&4",
"--:1=-111=:>3>o%#%&%@O@-7:<>-=:&-&&:-O&:%==&#@>>><<>::><,44#+,&&",
"w&%>:<4:4:&<<@&396336411<%:>::<-==&=##><331>---@>1<:::<344&@4yyu",
"s6O%1<:1<<&:##ei77790767-@:>>:>==-%@#4ie9779wy7=%->>::::;+X5ar,,",
"-<w-.#%O@@%.#w7=&-::>>><79###@#O##.=94=%-->>--6w4X++$+$$@ qa5,;5",
"1<7&&441631&:7:%-:::>:>:<6%&-=:-=-@>1:---:><>:144*544;;;;&y5,;;4",
"1:>@-941133=<3=::>>>><::--O40336<:&4-%:<-><<<><>&*q54;,,*:u4&,,,",
"1::@-4>-=:<%:3=>:::><<>::=O44&%:<>&7:&:::>>><11<$&5;;**;&=y,&;;,",
"<:>@:1=-->1&>4=->:->><>-&:O==&:->>#63==-:><<1641=;5;;***&=r;&**,",
"<--o-1=->:<=>6-:::::>:-=::O->>3><1@63=&--><1331<**5;;$*=$*q=&**,",
"1:-o-4=:>><&>4&-:---::-&&&O13-<1<1@71=-::><1<<<1+$4;;**;#*q;*;;,",
">==o:6-=><1&>3%=====--==-=O34<1><>%w3:<:::>>-=>3$*4==*==*=r;**;,",
">&=oO#OO@%o.%:&%&&&-=&&&&-.#&O&@@+@54,*;*;:,:*12*+@&++## >8<-&&-",
"1&.o166<-341-@O=-&&&&&&&=.#34666454;$,4;::,**:1& ;4:;=-::@&==&&>",
"<.#ey479<40e7-@@---&&&-&.&we607755q5$*,4,<1***&X4084480wy0: O:-:",
"@O69-@%&=#@=>>-@+@#+O@O.&w9-==-&;$;55;$$$$+X&o+4y,&&&@&&&6w>@O &",
"@46#@-&&-&%&=>>%%%%%%&@X79=&<--:;$*,5*$$;*$$*+;p&O&&&&=,==41O&>7",
"<6&@&=&&--<<:=%o741133<:6&=<>-=-,;,;,$;94,4<,&49X&&@&&=><==#O05>",
":>#%#%>-<-=-:-&@1-&&&*%%7&::->>1;*;;,+*5$&&*&+1:@&&o+*>,<4<&@4=>",
":>=&&-=<:--:>:=%3-&-:&%%3>==<>->;;4;*+;5*;*$&o,>&@&*&&*;><1>@4::",
"-:---&:>1:::::=@:;:=&=&&4&*:*:1&;,,,*+;4&*&&&+5<#&==:-&&=-4>@3<1",
"-:==-:>::<:-<<&#1::=*=%&2-->>11-;,,,,$*4&**;&X44@&--->11$:>&$5>4",
">4:-1>-<:---->-@3:;==*%&4>--:1:-4,;**@,5**&*& ,,@%==#&><:<<-%557",
"@::-->:>:&=-=:&o*++OoX.O<-,>>>-*;;;;:+$$O+OX  ><&&&&#%&%-45=.&*-",
"<O%<-:>--:=:>#oO1>><>>>4@O-4,,<,;*2,@ &;->-->;- &&%&&=%O-3-.%>-1",
"e<@#1<=>::::%o%6546544404&#=,45,,44++4ur0090yt6#O#=&*::->o.-et39",
">w1.&1&=-&-&o%77$@#@@&#&w4O &**$**$X5u9$&&=&&;7yOo@#OO%%# <tw4*&",
"=4y4O#=%&%#O&09@>--=->>--0>&:;:,<;*5d5&,>:;>-=1e0&#=&%&$+1a9&><4"
};
