/* XPM */
static char *_599860348993[] = {
/* columns rows colors chars-per-pixel */
"64 64 64 1 ",
"  c #020106",
". c #0B0A0F",
"X c #100F17",
"o c #131217",
"O c #15151B",
"+ c #18171D",
"@ c #1A191E",
"# c #171A21",
"$ c #1C1C23",
"% c #201F25",
"& c #1D2027",
"* c #1E2128",
"= c #222126",
"- c #25242B",
"; c #28272D",
": c #25282F",
"> c #2A292E",
", c #272A31",
"< c #2C2C33",
"1 c #302F35",
"2 c #2D3037",
"3 c #2E3138",
"4 c #323136",
"5 c #34343B",
"6 c #38373D",
"7 c #36383E",
"8 c #3A393E",
"9 c #373A41",
"0 c #3C3C42",
"q c #403F45",
"w c #3D4046",
"e c #3F4248",
"r c #424146",
"t c #44444B",
"y c #48474D",
"u c #45484F",
"i c #4A494E",
"p c #474A51",
"a c #4C4C53",
"s c #504F55",
"d c #4D5057",
"f c #4F5159",
"g c #525156",
"h c #54545A",
"j c #58575D",
"k c #55585F",
"l c #5A595E",
"z c #565960",
"x c #5C5C62",
"c c #605F65",
"v c #5D6067",
"b c #5E6168",
"n c #626166",
"m c #64636A",
"M c #68676E",
"N c #65686F",
"B c #6A696E",
"V c #666970",
"C c #6B6A72",
"Z c #706F76",
"A c #717276",
"S c #74737A",
"D c #78777F",
"F c #7A7981",
/* pixels */
"mMmcFxy*ft990eq0rr8@>nnlllglllglllkhze2zzfzkfzzd:9qk9<hhxxxjjjhz",
"mmmxmxy-yq000tt0irr=>lllgggggllggggsh0,zkfffdfzd99df1<axaaaaaaay",
"cmcxmFa<tqqqqqtqrir>>iglgiigggglgiiid9:ffddpeffe<qfh5<azaashhhfa",
"xcxzmMs<qqttttt0rri4>rrllggiiiggsiiia9:ffpddpfk0#0sf0-thaaayyayy",
"xxxjcma3ttyytt0068r>>rrllgggiiigfpapf9,zfdffpfze<ajhq3yzhayytyyy",
"zxczxca3yttttq0948r>>riigggggiiidpppf9,zfdffpkzp3qaq3&5yhfaaayaa",
"fxcxcvq<yyqtyyt068r=>giriiiggiiiaeppf9,kkdfdpfkeO955<O-555900055",
"fxcxcxq<yt0qyay0rrr=4lgr8riigiiiaeued9:ffpddpfze-ajMFysh:<50qq95",
"fmmxmxt3<ttttq516ir=>riirrgiiliidedad9:0Nffppkf9,xDCmCCM550559t5",
"ammxxxt5<eq9ee5<4r6>8rrirrligligu0ape9,ukfkffzk9,fMxxmmC5<553593",
"3taqee53<5<:59<<>4>4884444r646>4,,999,*ufpffdkze<hmmvmmMe5555555",
"<ahyyaythp3<qaaarirrli8468r864%>VbVzxf9dzfkfpkxk,yxvCmxxf95tq55<",
"5zmzxxxmxh00hxhxilggllr48rgrii>8FVNbNk33zfzfefzd*ehxCMmmt350555<",
",azaahfhht5qxxytriiigi8>>8rrii48NzzzVb9,99ue999,*eaaahya3-:<335<",
",yzaahafhy9txxyyilgggir86888gg8rNxzkbz9*9999999#<fxfaaataaffahza",
":yhaafaahe<5tytygliii8>4rr84ii4rxzxfxz93pedu0ap9$ymzxmxhzxxhahza",
"59efzzfafe:9zupffhhqahq;rrr88444lnclBg84q88866qr$ezhaffaxhatyaat",
"9epppfffpe3ekpfzhasqqq9;r8844444cBnnCni8rqryyrqr$ezhsfayahhahzhy",
"9pattpffep39e90eqq0qqq>-8844>44>lnnnns4>8qqqrr8q-0ffaay00taafhhy",
"5aftepff9e:,9393qq0qqq494=>64444iiiir8;@=>@@;=@;$-1555<**<150qq5",
"3pzpepppeu,3pdzpgsslljgjg6rnnlllllcnnnnlss4>qq6ghxjxxmzffhxxxxxx",
",uffuppuzp39vzFfjgjccxxci=8nnllllggljlnlnn86jyqCFFcFmFFFDDDCCCCm",
"3effpupuzp30zfffqjgsglqhi>8ggglgcgllsgjsji>4lq;chxzjxxmxMMxxxxha",
"39pfpuupfe,evffvsjjgqqsq8>6r8gligggcggjsjs4rZr;nhzzxxxxxxxxxmCmh",
"::9fuuupfe#3ffafggqggiili44qiiggglirgliiss56jjysmmhmCxmxxmxxxmxa",
"999ezfpuze&3zffaqggqgiijr48ggiiiggiriiggsh06cMi6CmhxMmCmmMmxCCmz",
"ep99fzpuzu*9zfffgjjgjgii4>8llgggsiisiiglsj0<hCs<mCxxxxmxmmxxxCmh",
"9fpepfFvfu*,ppfaqggqgllj>>8jlgllgiggsgllxxq<sCxqfDDCmxmxxxzhxmxh",
":9e3:9aue9#&3999qq666886@+=64484646844r6qq<-5ytq9fppaaahaattyfye",
"&:,*#,3&33##,:331%@;;==%4>464>4==48rrr4o;--1555039*,eyaaetttyae9",
"39999ee33e:393994=1gclcnBlnnllli6gnBZBr@ttyhhsahap:<xxxzzxxhxxfq",
":9e9ee9eefupfeueq4rBSBnBBlnnnBli8llill6@jssshhzzzf,9mxaataayaae3",
">8r888r8rr8rrriir=inlnnnnljjjlll4iliglr4lgigllgg8g>iNdffpdpupdq9",
">88868rrr8r88rri>@8lnnggnnlllccn4rliilr>lggllgrrig>8zfkfpddpdd09",
"48r6488rr8r88rii;%6gnnlnllljllllr8lgigi4nlglir88sj>4zzzfpdppdfp9",
"8rr88888rr88rrrrr>8sgjnnlnnlclcc66lngg84lirrr8riqg>1kxxfdddpdke9",
"8rirrrr888r88rrii>4iqrnllllllxxc%6lglg>@giiiiiilsj3:efzzfffpdfp9",
"=6rrrirr446888884o;sisBnnjgjxncc%ingln4+lggllggglc9$90ezdffdfkd9",
"=>446884>>>44444@@@rgijllgsglncl4rgign8@irigllggjs,$909ffffffkp9",
"=>>=>>>=====>>>>@4+;r>%46>%;1q4>4=4848;+r88rigigq9$-uu9ufffdkzf9",
"gnnlnro4iiggirrrrrrrr=.>;;1+;aqigrglgi>@ilgrrrriee9,zbe9defvffd9",
"nnnnBi=ggggiirrisgggg4o4sys1qcgnngnnnn8=rlllnnlgbf99fvfpe0kbbzk9",
"nnnnBi>llgiiiiigiiggg6+6qqq->gscBlnnBni>>8rriir8e9*&99e009efffe9",
"lnnnBr@igirrisggiisig6@4q0q;1jjMnllnlnr=@>>==>8r99**99099*,*&,,*",
"gnBlnr@6rrrrigggggiig8=8q0a56mhFnlllglr=>>444inBfdffdzz0999,,999",
"gBngng>r88rigggsiii8r8@8q5q55xsxnngglli%48rrrlBZNvbbvVVf9eefzbke",
"lnnlBl>rriggggggiiiri8@4a6y56FxxnBllllg>48i84rllvkffzbvp#90efzf0",
"gllnSg=6igjgggggglligr>8a<6-1xmmnBnnggg488rr4rlBNbvzNNf9,909pzfe",
"ggBnsq;-05q900<0tqq503#$3$,-5hhjgnlgnl>.=44>>rBgahxxllgi4slq1gl8",
">=881<-<;-5qyt503--<3<$<-$--<1--84=@>48848>>@4llfcMccBcj=qls6ri4",
">@8sqtqst1ymFmjma,5aytqhatafat<5gir8rrgnllir44lnjcmccBBl16igirr4",
"4=qnhhjxx1qcmmjFa<txfaazxszxxa0allllliiillgl8=8r65498q86=@;<>14=",
"q=qmshsjz<5ffhaCq:yhyaataqaaht<tgiiggirriglBr=445%@>4;%>>141@=4>",
"q>qsqsjch<qmcxxC9<axasfaaahfxa<qlggggllgriglr>rij4;qiq8iijlr44q>",
"6;qqqqshq-tmxxzx0-tfyytaassyha<0giglgggr8rri4=rig1%qiytggsg8>44=",
"55qqshqsa,amhhxxa1yxftqhfht5ya<qrrggigg8riii44iis4>8sgglrii8%=88",
"0<tayaafm09xmzxmh<9zxhfxjjqqgq4<riiriigrigng44ilng8rgiirgrii==84",
"0<qatyqqt5qmmxxxy-3taytyqsqqqq<;irrrrrr8>4rr>>rgir4rgiiri8rr=>qq",
"<*-33553<<9ye550,#$*-<-$-91<5>@@>>>==4>==>>>%@>>>=o4iigiirrr=;84",
"<&*-*-9yataa5,<t0555509-X-<><;@%+@@@=>=oiiirr844rr==444>;=>>@@==",
"9595--pxxaazt<5mhfsayhh5$9qqq868=446r84@glgllgginl84884>@@4444q8",
"90yy<*ejt0qht::fatqqqyy,$qqqyqqqrrrrii6=iiiiggiirg48lnnlrilnnnnB",
"50tt:$9ytyaha<:tyt0qqty,O5q08r8rrrr8rr4oigggggii8g48nnnnllnnnlll",
"0q0q:-tfyaaah95yte0qqyy<$9q98rrrr8668r4=riiiirriig4>illllnllgggl"
};
